IKResults
version=1
nRows=25
nColumns=24
inDegrees=yes

Units are S.I. units (second, meters, Newtons, ...)
If the header above contains a line with 'inDegrees', this indicates whether rotational values are in degrees (yes) or radians (no).

endheader
time	pelvis_tilt	pelvis_list	pelvis_rotation	pelvis_tx	pelvis_ty	pelvis_tz	hip_flexion_r	hip_adduction_r	hip_rotation_r	knee_angle_r	ankle_angle_r	subtalar_angle_r	mtp_angle_r	hip_flexion_l	hip_adduction_l	hip_rotation_l	knee_angle_l	ankle_angle_l	subtalar_angle_l	mtp_angle_l	lumbar_extension	lumbar_bending	lumbar_rotation
2.900000	11.204352	1.706834	-179.864240	0.214980	0.852116	-1.205445	16.988835	-10.516330	-35.450223	-12.002348	-0.329618	8.950246	0.000000	18.656154	-14.774176	-30.369507	-14.664482	1.672435	11.220002	0.000000	1.665899	2.285430	0.915161
2.905000	11.240985	1.725283	-179.873895	0.214944	0.852063	-1.205382	17.023117	-10.505340	-35.476546	-11.999485	-0.345919	8.980992	0.000000	18.693152	-14.781421	-30.433558	-14.651006	1.663498	11.203738	0.000000	1.711372	2.340528	0.919101
2.910000	11.219483	1.732649	-179.822661	0.215081	0.852073	-1.205503	17.005388	-10.501931	-35.517842	-12.019709	-0.319866	8.951498	0.000000	18.709700	-14.791527	-30.381985	-14.674146	1.649253	11.237381	0.000000	1.667961	2.325508	0.914055
2.915000	11.221193	1.745102	-179.824983	0.215140	0.852072	-1.205492	17.022936	-10.496059	-35.529075	-12.045589	-0.324309	8.947121	0.000000	18.718173	-14.805870	-30.387538	-14.674260	1.632016	11.233234	0.000000	1.655619	2.353092	0.940836
2.920000	11.221777	1.745206	-179.815235	0.215182	0.852069	-1.205498	17.025096	-10.496131	-35.530128	-12.046193	-0.323292	8.946948	0.000000	18.725202	-14.804740	-30.388299	-14.674528	1.630906	11.232585	0.000000	1.646822	2.359250	0.947199
2.925000	11.225199	1.743702	-179.812512	0.215176	0.852069	-1.205460	17.025392	-10.501947	-35.530843	-12.041805	-0.322782	8.947108	0.000000	18.732662	-14.800045	-30.386820	-14.679867	1.630483	11.233288	0.000000	1.648490	2.376797	0.954597
2.930000	11.250379	1.766213	-179.760880	0.215267	0.852002	-1.205546	17.031795	-10.475247	-35.547959	-12.014068	-0.320291	8.953552	0.000000	18.812207	-14.829571	-30.311317	-14.736679	1.670735	11.258152	0.000000	1.670382	2.383475	0.916309
2.935000	11.243301	1.765946	-179.744818	0.215333	0.852016	-1.205571	17.032022	-10.480727	-35.559351	-12.029196	-0.315370	8.943923	0.000000	18.825841	-14.835013	-30.306496	-14.760959	1.658640	11.257185	0.000000	1.650650	2.380950	0.926800
2.940000	11.213711	1.780862	-179.711574	0.215505	0.852053	-1.205694	17.016081	-10.469070	-35.589541	-12.058072	-0.272130	8.910418	0.000000	18.843790	-14.864610	-30.260475	-14.811494	1.653603	11.257484	0.000000	1.594979	2.368968	0.948353
2.945000	11.215237	1.779675	-179.716453	0.215466	0.852060	-1.205597	17.016094	-10.476176	-35.589407	-12.060096	-0.271808	8.909905	0.000000	18.842916	-14.858768	-30.259081	-14.816077	1.652495	11.257044	0.000000	1.600039	2.392974	0.955762
2.950000	11.207207	1.780708	-179.706172	0.215551	0.852026	-1.205655	17.018170	-10.480311	-35.586196	-12.080512	-0.270063	8.910955	0.000000	18.860010	-14.869480	-30.241587	-14.849630	1.649210	11.253846	0.000000	1.579543	2.397267	0.972245
2.955000	11.197319	1.773767	-179.683763	0.215651	0.851989	-1.205734	17.013146	-10.489125	-35.572364	-12.089204	-0.269001	8.917779	0.000000	18.879996	-14.869458	-30.209831	-14.886639	1.654799	11.258133	0.000000	1.554178	2.383991	0.957466
2.960000	11.195623	1.772267	-179.671663	0.215738	0.851971	-1.205796	17.016291	-10.490461	-35.572464	-12.090559	-0.266059	8.916914	0.000000	18.890326	-14.870468	-30.206738	-14.885607	1.658009	11.258080	0.000000	1.538106	2.383616	0.959629
2.965000	11.181424	1.775547	-179.660793	0.215812	0.851984	-1.205778	17.023495	-10.502544	-35.571536	-12.139336	-0.259540	8.909016	0.000000	18.905522	-14.880070	-30.168764	-14.931324	1.654594	11.260421	0.000000	1.510099	2.396234	0.979199
2.970000	11.181598	1.800792	-179.651971	0.215900	0.851964	-1.205809	17.047342	-10.487000	-35.605297	-12.190679	-0.187614	8.880406	0.000000	18.932261	-14.909128	-30.117303	-14.958243	1.679560	11.224338	0.000000	1.497271	2.423885	0.999947
2.975000	11.168099	1.798878	-179.636785	0.216008	0.851981	-1.205849	17.047349	-10.495076	-35.586369	-12.217257	-0.197395	8.886746	0.000000	18.960420	-14.920094	-30.098615	-15.045039	1.649979	11.201642	0.000000	1.466451	2.414462	1.016515
2.980000	11.159645	1.806387	-179.625229	0.216147	0.851935	-1.205927	17.057300	-10.492642	-35.561486	-12.248769	-0.184988	8.888404	0.000000	18.983600	-14.938669	-30.065658	-15.067420	1.669816	11.186572	0.000000	1.434515	2.415165	1.007228
2.985000	11.144114	1.806216	-179.599540	0.216293	0.851903	-1.206008	17.054751	-10.498348	-35.542707	-12.271293	-0.169064	8.885010	0.000000	19.021314	-14.954767	-30.031127	-15.139670	1.675170	11.173651	0.000000	1.398139	2.401531	1.006624
2.990000	11.110305	1.819251	-179.533183	0.216579	0.851882	-1.206213	17.054901	-10.498480	-35.567038	-12.346623	-0.071061	8.802031	0.000000	19.076503	-14.987571	-29.922852	-15.234940	1.695847	11.134256	0.000000	1.319382	2.372795	0.971363
2.995000	11.159445	1.842667	-179.588940	0.216683	0.851837	-1.206157	17.162843	-10.488578	-35.517530	-12.429499	-0.075627	8.787321	0.000000	19.145433	-15.020334	-29.886871	-15.277821	1.698489	11.006377	0.000000	1.361668	2.434078	1.050742
3.000000	11.196667	1.815640	-179.589632	0.216920	0.851795	-1.206148	17.267259	-10.532900	-35.414146	-12.522864	-0.075495	8.612578	0.000000	19.233571	-14.964570	-29.653335	-15.335015	1.615762	10.588242	0.000000	1.364900	2.420920	1.050317
3.005000	11.169261	1.817197	-179.586077	0.217047	0.851764	-1.206209	17.279534	-10.548093	-35.379489	-12.600618	-0.076055	8.610580	0.000000	19.245947	-14.982410	-29.616652	-15.381816	1.622553	10.599204	0.000000	1.310749	2.425808	1.044535
3.010000	11.129650	1.800142	-179.556553	0.217193	0.851734	-1.206288	17.278450	-10.585763	-35.317967	-12.683479	0.000301	8.574088	0.000000	19.270415	-14.984867	-29.571639	-15.486031	1.712719	10.595721	0.000000	1.233387	2.401318	0.996689
3.015000	11.238894	1.909390	-179.597573	0.217679	0.851515	-1.206866	17.473082	-10.389574	-34.939404	-12.722576	-0.043224	7.981305	0.000000	19.512057	-15.197512	-29.561166	-15.678491	1.735204	10.653706	0.000000	1.287534	2.447559	1.056937
3.020000	11.221729	1.914155	-179.601877	0.217861	0.851491	-1.206897	17.533369	-10.416528	-34.879066	-12.868198	0.014016	7.956907	0.000000	19.555693	-15.224846	-29.521330	-15.776516	1.782554	10.630259	0.000000	1.235233	2.448178	1.096299
